<mxfile host="app.diagrams.net" agent="Mozilla/5.0 (Windows NT 10.0; Win64; x64) AppleWebKit/537.36 (KHTML, like Gecko) Chrome/132.0.0.0 Safari/537.36" version="26.0.11">
  <diagram name="Trang-1" id="h_Oa9AgKwLQDjheVj2h2">
    <mxGraphModel dx="1006" dy="559" grid="1" gridSize="10" guides="1" tooltips="1" connect="1" arrows="1" fold="1" page="1" pageScale="1" pageWidth="827" pageHeight="1169" math="0" shadow="0">
      <root>
        <mxCell id="0" />
        <mxCell id="1" parent="0" />
        <mxCell id="pB0aQF64MD5_JgTleQGF-1" value="patients" style="rounded=0;whiteSpace=wrap;html=1;" vertex="1" parent="1">
          <mxGeometry x="80" y="250" width="120" height="60" as="geometry" />
        </mxCell>
        <mxCell id="pB0aQF64MD5_JgTleQGF-3" value="doctors" style="rounded=0;whiteSpace=wrap;html=1;" vertex="1" parent="1">
          <mxGeometry x="360" y="30" width="120" height="60" as="geometry" />
        </mxCell>
        <mxCell id="pB0aQF64MD5_JgTleQGF-4" value="appointments" style="rounded=0;whiteSpace=wrap;html=1;" vertex="1" parent="1">
          <mxGeometry x="360" y="250" width="120" height="60" as="geometry" />
        </mxCell>
        <mxCell id="pB0aQF64MD5_JgTleQGF-5" value="prescriptions" style="rounded=0;whiteSpace=wrap;html=1;" vertex="1" parent="1">
          <mxGeometry x="640" y="250" width="120" height="60" as="geometry" />
        </mxCell>
        <mxCell id="pB0aQF64MD5_JgTleQGF-12" value="N" style="edgeStyle=orthogonalEdgeStyle;rounded=0;orthogonalLoop=1;jettySize=auto;html=1;" edge="1" parent="1" source="pB0aQF64MD5_JgTleQGF-6" target="pB0aQF64MD5_JgTleQGF-4">
          <mxGeometry relative="1" as="geometry" />
        </mxCell>
        <mxCell id="pB0aQF64MD5_JgTleQGF-6" value="có" style="rhombus;whiteSpace=wrap;html=1;" vertex="1" parent="1">
          <mxGeometry x="240" y="240" width="80" height="80" as="geometry" />
        </mxCell>
        <mxCell id="pB0aQF64MD5_JgTleQGF-10" value="N" style="edgeStyle=orthogonalEdgeStyle;rounded=0;orthogonalLoop=1;jettySize=auto;html=1;" edge="1" parent="1" source="pB0aQF64MD5_JgTleQGF-7" target="pB0aQF64MD5_JgTleQGF-4">
          <mxGeometry relative="1" as="geometry" />
        </mxCell>
        <mxCell id="pB0aQF64MD5_JgTleQGF-7" value="có" style="rhombus;whiteSpace=wrap;html=1;" vertex="1" parent="1">
          <mxGeometry x="380" y="130" width="80" height="80" as="geometry" />
        </mxCell>
        <mxCell id="pB0aQF64MD5_JgTleQGF-14" value="N" style="edgeStyle=orthogonalEdgeStyle;rounded=0;orthogonalLoop=1;jettySize=auto;html=1;" edge="1" parent="1" source="pB0aQF64MD5_JgTleQGF-8" target="pB0aQF64MD5_JgTleQGF-5">
          <mxGeometry relative="1" as="geometry" />
        </mxCell>
        <mxCell id="pB0aQF64MD5_JgTleQGF-8" value="có" style="rhombus;whiteSpace=wrap;html=1;" vertex="1" parent="1">
          <mxGeometry x="520" y="240" width="80" height="80" as="geometry" />
        </mxCell>
        <mxCell id="pB0aQF64MD5_JgTleQGF-9" value="1" style="endArrow=none;html=1;rounded=0;exitX=0.5;exitY=0;exitDx=0;exitDy=0;entryX=0.5;entryY=1;entryDx=0;entryDy=0;" edge="1" parent="1" source="pB0aQF64MD5_JgTleQGF-7" target="pB0aQF64MD5_JgTleQGF-3">
          <mxGeometry width="50" height="50" relative="1" as="geometry">
            <mxPoint x="346" y="160" as="sourcePoint" />
            <mxPoint x="396" y="110" as="targetPoint" />
          </mxGeometry>
        </mxCell>
        <mxCell id="pB0aQF64MD5_JgTleQGF-11" value="1" style="endArrow=none;html=1;rounded=0;exitX=1;exitY=0.5;exitDx=0;exitDy=0;entryX=0;entryY=0.5;entryDx=0;entryDy=0;" edge="1" parent="1" source="pB0aQF64MD5_JgTleQGF-1" target="pB0aQF64MD5_JgTleQGF-6">
          <mxGeometry width="50" height="50" relative="1" as="geometry">
            <mxPoint x="140" y="230" as="sourcePoint" />
            <mxPoint x="190" y="180" as="targetPoint" />
          </mxGeometry>
        </mxCell>
        <mxCell id="pB0aQF64MD5_JgTleQGF-13" value="1" style="endArrow=none;html=1;rounded=0;exitX=1;exitY=0.5;exitDx=0;exitDy=0;entryX=0;entryY=0.5;entryDx=0;entryDy=0;" edge="1" parent="1" source="pB0aQF64MD5_JgTleQGF-4" target="pB0aQF64MD5_JgTleQGF-8">
          <mxGeometry width="50" height="50" relative="1" as="geometry">
            <mxPoint x="540" y="230" as="sourcePoint" />
            <mxPoint x="590" y="180" as="targetPoint" />
          </mxGeometry>
        </mxCell>
      </root>
    </mxGraphModel>
  </diagram>
</mxfile>
